<svg width="41" height="40" viewBox="0 0 41 40" fill="none" xmlns="http://www.w3.org/2000/svg">
<path d="M9.50766 32H31.4929C34.1471 32 35.5 30.6909 35.5 28.0984V14.922C35.5 12.3295 34.1471 11.0333 31.4929 11.0333H28.5072C27.5119 11.0333 27.2059 10.8319 26.6315 10.2026L25.5976 9.06963C24.9726 8.37802 24.322 8 22.9946 8H17.9161C16.6018 8 15.9506 8.37802 15.3131 9.06963L14.2792 10.2026C13.7178 10.819 13.3988 11.0333 12.4036 11.0333H9.50711C6.85295 11.0333 5.5 12.3295 5.5 14.922V28.0984C5.5 30.6909 6.85349 32 9.50766 32ZM9.54523 29.9735C8.28211 29.9735 7.55473 29.3066 7.55473 27.9975V15.0353C7.55473 13.7262 8.28211 13.0592 9.54523 13.0592H12.9137C14.0625 13.0592 14.675 12.8455 15.3131 12.141L16.3208 11.0333C17.0482 10.2279 17.4184 10.0265 18.5542 10.0265H22.3566C23.4923 10.0265 23.8625 10.2279 24.5899 11.0333L25.5976 12.1405C26.2357 12.8455 26.8482 13.0592 27.997 13.0592H31.4548C32.7179 13.0592 33.4458 13.7262 33.4458 15.0353V27.9975C33.4458 29.3066 32.7184 29.9735 31.4548 29.9735H9.54523ZM20.494 27.9728C21.4107 27.9754 22.3189 27.799 23.1661 27.4538C24.0134 27.1086 24.783 26.6014 25.4306 25.9615C26.0782 25.3216 26.591 24.5616 26.9395 23.7253C27.2879 22.8891 27.465 21.9931 27.4607 21.089C27.4607 17.2626 24.3726 14.2051 20.4935 14.2051C16.6399 14.2051 13.5393 17.2626 13.5393 21.089C13.5393 24.9143 16.6404 27.9728 20.494 27.9728ZM29.6679 18.0175C30.5358 18.0175 31.2501 17.3259 31.2501 16.47C31.2501 16.0562 31.0834 15.6593 30.7867 15.3666C30.4899 15.074 30.0875 14.9096 29.6679 14.9096C29.2483 14.9096 28.8459 15.074 28.5492 15.3666C28.2524 15.6593 28.0857 16.0562 28.0857 16.47C28.0857 17.3259 28.8001 18.0175 29.6679 18.0175ZM20.494 26.0601C17.725 26.0601 15.4666 23.8452 15.4666 21.089C15.4666 18.3327 17.7124 16.1183 20.494 16.1183C21.1561 16.1175 21.8119 16.2456 22.4237 16.4951C23.0356 16.7446 23.5915 17.1107 24.0597 17.5724C24.5279 18.0341 24.8992 18.5824 25.1522 19.1858C25.4053 19.7892 25.5352 20.436 25.5345 21.089C25.5353 21.742 25.4054 22.3888 25.1524 22.9923C24.8994 23.5957 24.5281 24.1441 24.0599 24.6058C23.5917 25.0676 23.0357 25.4338 22.4238 25.6833C21.812 25.9329 21.1562 26.0609 20.494 26.0601Z" fill="#505050"/>
</svg>
