<svg width="26" height="26" viewBox="0 0 26 26" fill="none" xmlns="http://www.w3.org/2000/svg">
<circle cx="13" cy="13" r="12.5" fill="white" stroke="#A7A7A7"/>
<mask id="path-2-inside-1_7_773" fill="white">
<path d="M19.2825 9.03188C19.575 8.73938 19.575 8.25188 19.2825 7.97438L17.5275 6.21937C17.25 5.92688 16.7625 5.92688 16.47 6.21937L15.09 7.59187L17.9025 10.4044M6 16.6894V19.5019H8.8125L17.1075 11.1994L14.295 8.38687L6 16.6894Z"/>
</mask>
<path d="M19.2825 9.03188C19.575 8.73938 19.575 8.25188 19.2825 7.97438L17.5275 6.21937C17.25 5.92688 16.7625 5.92688 16.47 6.21937L15.09 7.59187L17.9025 10.4044M6 16.6894V19.5019H8.8125L17.1075 11.1994L14.295 8.38687L6 16.6894Z" fill="#A7A7A7"/>
<path d="M19.2825 7.97438L18.5754 8.68148L18.5847 8.69078L18.5942 8.69984L19.2825 7.97438ZM17.5275 6.21937L16.802 6.90764L16.8111 6.91718L16.8204 6.92648L17.5275 6.21937ZM16.47 6.21937L17.1752 6.92841L17.1771 6.92648L16.47 6.21937ZM15.09 7.59187L14.3848 6.88284L13.6739 7.58995L14.3829 8.29898L15.09 7.59187ZM6 16.6894L5.29257 15.9826L5 16.2754V16.6894H6ZM6 19.5019H5V20.5019H6V19.5019ZM8.8125 19.5019V20.5019H9.22698L9.51993 20.2087L8.8125 19.5019ZM17.1075 11.1994L17.8149 11.9062L18.5214 11.1991L17.8146 10.4923L17.1075 11.1994ZM14.295 8.38687L15.0021 7.67977L14.2947 6.97234L13.5876 7.68009L14.295 8.38687ZM19.9896 9.73898C20.662 9.06656 20.6895 7.93081 19.9708 7.24891L18.5942 8.69984C18.5237 8.63291 18.5019 8.55322 18.5019 8.4975C18.5019 8.44195 18.5227 8.37744 18.5754 8.32477L19.9896 9.73898ZM19.9896 7.26727L18.2346 5.51227L16.8204 6.92648L18.5754 8.68148L19.9896 7.26727ZM18.253 5.53111C17.5711 4.81236 16.4353 4.83985 15.7629 5.51227L17.1771 6.92648C17.1244 6.97915 17.0599 7 17.0044 7C16.9487 7 16.869 6.97819 16.802 6.90764L18.253 5.53111ZM15.7648 5.51034L14.3848 6.88284L15.7952 8.30091L17.1752 6.92841L15.7648 5.51034ZM14.3829 8.29898L17.1954 11.1115L18.6096 9.69727L15.7971 6.88477L14.3829 8.29898ZM5 16.6894V19.5019H7V16.6894H5ZM6 20.5019H8.8125V18.5019H6V20.5019ZM9.51993 20.2087L17.8149 11.9062L16.4001 10.4926L8.10507 18.7951L9.51993 20.2087ZM17.8146 10.4923L15.0021 7.67977L13.5879 9.09398L16.4004 11.9065L17.8146 10.4923ZM13.5876 7.68009L5.29257 15.9826L6.70743 17.3962L15.0024 9.09366L13.5876 7.68009Z" fill="#A7A7A7" mask="url(#path-2-inside-1_7_773)"/>
</svg>
