<svg width="40" height="40" viewBox="0 0 40 40" fill="none" xmlns="http://www.w3.org/2000/svg">
<path d="M7.69333 35C6.92556 35 6.285 34.7433 5.77167 34.23C5.25833 33.7167 5.00111 33.0761 5 32.3083V26.6667H6.66667V32.3083C6.66667 32.5639 6.77333 32.7989 6.98667 33.0133C7.2 33.2278 7.435 33.3344 7.69167 33.3333H13.3333V35H7.69333ZM5 13.3333V7.69333C5 6.92556 5.25722 6.285 5.77167 5.77167C6.28611 5.25833 6.92611 5.00111 7.69167 5H13.3333V6.66667H7.69333C7.43667 6.66667 7.20111 6.77333 6.98667 6.98667C6.77222 7.2 6.66556 7.435 6.66667 7.69167V13.3333H5ZM26.6667 35V33.3333H32.3083C32.5639 33.3333 32.7989 33.2267 33.0133 33.0133C33.2278 32.8 33.3344 32.5644 33.3333 32.3067V26.6667H35V32.3083C35 33.075 34.7433 33.715 34.23 34.2283C33.7167 34.7417 33.0761 34.9989 32.3083 35H26.6667ZM33.3333 13.3333V7.69333C33.3333 7.43667 33.2267 7.20111 33.0133 6.98667C32.8 6.77222 32.565 6.66556 32.3083 6.66667H26.6667V5H32.3083C33.075 5 33.715 5.25722 34.2283 5.77167C34.7417 6.28611 34.9989 6.92611 35 7.69167V13.3333H33.3333ZM20 19.8083C18.84 19.8083 17.8556 19.4039 17.0467 18.595C16.2378 17.7861 15.8333 16.8017 15.8333 15.6417C15.8333 14.5083 16.2378 13.5306 17.0467 12.7083C17.8556 11.8861 18.84 11.475 20 11.475C21.1333 11.475 22.1111 11.8861 22.9333 12.7083C23.7556 13.5306 24.1667 14.5083 24.1667 15.6417C24.1667 16.8017 23.7556 17.7861 22.9333 18.595C22.1111 19.4039 21.1333 19.8083 20 19.8083ZM10.8333 28.525V26.1917C10.8333 25.7361 10.9472 25.3161 11.175 24.9317C11.4017 24.5461 11.7117 24.2322 12.105 23.99C13.2983 23.2833 14.5639 22.7511 15.9017 22.3933C17.2406 22.0378 18.6067 21.86 20 21.86C21.3933 21.86 22.7594 22.0378 24.0983 22.3933C25.4372 22.7489 26.7028 23.2811 27.895 23.99C28.2883 24.2311 28.5983 24.545 28.825 24.9317C29.0528 25.3172 29.1667 25.7378 29.1667 26.1933V28.5267L10.8333 28.525Z" fill="black"/>
</svg>
