<svg width="236" height="35" viewBox="0 0 236 35" fill="none" xmlns="http://www.w3.org/2000/svg">
<path d="M0.392969 22.36H1.23297C2.3263 22.36 2.87297 21.8267 2.87297 20.76V7.32C2.87297 6.28 2.3263 5.76 1.23297 5.76H0.392969V1.12H10.033L15.273 13.12L20.473 1.12H30.113V5.76H29.273C28.2063 5.76 27.673 6.28 27.673 7.32V20.76C27.673 21.2933 27.793 21.6933 28.033 21.96C28.2996 22.2267 28.713 22.36 29.273 22.36H30.113V27H17.913V22.36H18.753C19.8463 22.36 20.393 21.8667 20.393 20.88V12.16L17.393 19.12H13.113L10.113 12.16V20.88C10.113 21.8667 10.6596 22.36 11.753 22.36H12.593V27H0.392969V22.36ZM45.9305 27.6C42.5705 27.6 39.9571 26.7333 38.0905 25C36.2505 23.2667 35.3305 20.7333 35.3305 17.4C35.3305 14.04 36.2371 11.5067 38.0505 9.8C39.8638 8.06667 42.4905 7.2 45.9305 7.2C49.3438 7.2 51.9438 8.06667 53.7305 9.8C55.5438 11.5067 56.4505 14.04 56.4505 17.4C56.4505 20.7333 55.5305 23.2667 53.6905 25C51.8505 26.7333 49.2638 27.6 45.9305 27.6ZM45.9305 22.84C47.1038 22.84 47.9171 22.4267 48.3705 21.6C48.8505 20.7467 49.0905 19.3467 49.0905 17.4C49.0905 15.4267 48.8505 14.0267 48.3705 13.2C47.9171 12.3733 47.1038 11.96 45.9305 11.96C44.7305 11.96 43.9038 12.3733 43.4505 13.2C42.9971 14 42.7705 15.4 42.7705 17.4C42.7705 19.3733 42.9971 20.7733 43.4505 21.6C43.9038 22.4267 44.7305 22.84 45.9305 22.84ZM61.6352 22.28H62.0352C63.1552 22.28 63.7152 21.7733 63.7152 20.76V14.12C63.7152 13.1067 63.1952 12.6 62.1552 12.6H61.6352V7.8H68.3552L68.6352 10.36C70.3685 8.25333 72.8218 7.2 75.9952 7.2C78.3952 7.2 80.1552 7.78667 81.2752 8.96C82.3952 10.1067 82.9552 11.7867 82.9552 14V20.76C82.9552 21.7733 83.5018 22.28 84.5952 22.28H85.3552V27H75.4352V14.04C75.4352 13.2133 75.2618 12.6133 74.9152 12.24C74.5685 11.8667 74.0485 11.68 73.3552 11.68C72.6085 11.68 72.0618 11.8667 71.7152 12.24C71.3685 12.5867 71.1952 13.1867 71.1952 14.04V20.76C71.1952 21.2667 71.2885 21.6533 71.4752 21.92C71.6885 22.16 72.0485 22.28 72.5552 22.28H73.0752V27H61.6352V22.28ZM100.766 27.6C97.4064 27.6 94.7931 26.7333 92.9264 25C91.0864 23.2667 90.1664 20.7333 90.1664 17.4C90.1664 14.04 91.0731 11.5067 92.8864 9.8C94.6997 8.06667 97.3264 7.2 100.766 7.2C104.18 7.2 106.78 8.06667 108.566 9.8C110.38 11.5067 111.286 14.04 111.286 17.4C111.286 20.7333 110.366 23.2667 108.526 25C106.686 26.7333 104.1 27.6 100.766 27.6ZM100.766 22.84C101.94 22.84 102.753 22.4267 103.206 21.6C103.686 20.7467 103.926 19.3467 103.926 17.4C103.926 15.4267 103.686 14.0267 103.206 13.2C102.753 12.3733 101.94 11.96 100.766 11.96C99.5664 11.96 98.7397 12.3733 98.2864 13.2C97.8331 14 97.6064 15.4 97.6064 17.4C97.6064 19.3733 97.8331 20.7733 98.2864 21.6C98.7397 22.4267 99.5664 22.84 100.766 22.84ZM116.471 22.28H117.311C117.898 22.28 118.311 22.1467 118.551 21.88C118.818 21.6133 118.951 21.2133 118.951 20.68V6.8C118.951 5.78667 118.404 5.28 117.311 5.28H116.471V0.519998H126.471V20.76C126.471 21.7733 127.018 22.28 128.111 22.28H128.951V27H116.471V22.28ZM144.352 27.6C140.992 27.6 138.379 26.7333 136.512 25C134.672 23.2667 133.752 20.7333 133.752 17.4C133.752 14.04 134.659 11.5067 136.472 9.8C138.286 8.06667 140.912 7.2 144.352 7.2C147.766 7.2 150.366 8.06667 152.152 9.8C153.966 11.5067 154.872 14.04 154.872 17.4C154.872 20.7333 153.952 23.2667 152.112 25C150.272 26.7333 147.686 27.6 144.352 27.6ZM144.352 22.84C145.526 22.84 146.339 22.4267 146.792 21.6C147.272 20.7467 147.512 19.3467 147.512 17.4C147.512 15.4267 147.272 14.0267 146.792 13.2C146.339 12.3733 145.526 11.96 144.352 11.96C143.152 11.96 142.326 12.3733 141.872 13.2C141.419 14 141.192 15.4 141.192 17.4C141.192 19.3733 141.419 20.7733 141.872 21.6C142.326 22.4267 143.152 22.84 144.352 22.84ZM171.631 35C169.658 35 167.978 34.7467 166.591 34.24C165.231 33.76 164.004 33.04 162.911 32.08V29H169.031V30.08C169.644 30.5867 170.484 30.84 171.551 30.84C172.378 30.84 172.978 30.6 173.351 30.12C173.724 29.64 173.911 29 173.911 28.2V25.32C173.138 25.9067 172.338 26.3333 171.511 26.6C170.684 26.8667 169.684 27 168.511 27C165.578 27 163.338 26.1867 161.791 24.56C160.244 22.9333 159.471 20.44 159.471 17.08C159.471 13.9333 160.298 11.5067 161.951 9.8C163.631 8.06667 165.844 7.2 168.591 7.2C170.218 7.2 171.538 7.45333 172.551 7.96C173.591 8.46667 174.498 9.28 175.271 10.4L175.591 7.8H182.071V12.4H181.671C181.164 12.4 180.818 12.5333 180.631 12.8C180.444 13.0667 180.351 13.4933 180.351 14.08V26.8C180.351 29.3067 179.591 31.2933 178.071 32.76C176.578 34.2533 174.431 35 171.631 35ZM170.191 22.76C171.364 22.76 172.191 22.3333 172.671 21.48C173.178 20.6 173.431 19.36 173.431 17.76V16.52C173.431 15 173.178 13.76 172.671 12.8C172.191 11.84 171.364 11.36 170.191 11.36C168.884 11.36 167.991 11.7867 167.511 12.64C167.058 13.4933 166.831 14.9733 166.831 17.08C166.831 18.4933 166.924 19.6133 167.111 20.44C167.298 21.24 167.631 21.8267 168.111 22.2C168.591 22.5733 169.284 22.76 170.191 22.76ZM195.83 27.64C193.43 27.64 191.67 27.0667 190.55 25.92C189.43 24.7467 188.87 23.0533 188.87 20.84V14.04C188.87 13.0267 188.323 12.52 187.23 12.52H186.47V7.8H196.39V20.8C196.39 21.6533 196.563 22.2667 196.91 22.64C197.256 23.0133 197.776 23.2 198.47 23.2C199.216 23.2 199.763 23.0133 200.11 22.64C200.456 22.2667 200.63 21.6533 200.63 20.8V14.04C200.63 13.5333 200.536 13.16 200.35 12.92C200.19 12.6533 199.87 12.52 199.39 12.52H198.75V7.8H208.11V20.72C208.11 21.7333 208.67 22.24 209.79 22.24H210.19V27H203.47L203.19 24.56C202.15 25.68 201.07 26.48 199.95 26.96C198.83 27.4133 197.456 27.64 195.83 27.64ZM226.051 27.64C222.558 27.64 219.838 26.7867 217.891 25.08C215.944 23.3733 214.971 20.8533 214.971 17.52C214.971 14.0267 215.878 11.44 217.691 9.76C219.504 8.05333 222.104 7.2 225.491 7.2C228.798 7.2 231.304 8.09333 233.011 9.88C234.744 11.64 235.611 14 235.611 16.96V18.88H222.371C222.371 20.48 222.651 21.6133 223.211 22.28C223.771 22.9467 224.758 23.28 226.171 23.28C227.158 23.28 228.038 23.1067 228.811 22.76V21.16H234.931V24.72C233.891 25.68 232.664 26.4133 231.251 26.92C229.838 27.4 228.104 27.64 226.051 27.64ZM228.251 15.04C228.251 13.9467 227.984 13.1067 227.451 12.52C226.944 11.9067 226.238 11.6 225.331 11.6C224.371 11.6 223.638 11.9067 223.131 12.52C222.624 13.1067 222.371 13.9467 222.371 15.04H228.251Z" fill="black"/>
</svg>
