<svg width="40" height="40" viewBox="0 0 40 40" fill="none" xmlns="http://www.w3.org/2000/svg">
<path d="M19.9997 18.975C18.6252 18.975 17.448 18.485 16.468 17.505C15.488 16.525 14.9986 15.3483 14.9997 13.975C15.0008 12.6017 15.4902 11.4239 16.468 10.4417C17.4458 9.45945 18.623 8.97111 19.9997 8.97667C21.3763 8.98223 22.5536 9.47111 23.5313 10.4433C24.5091 11.4156 24.9986 12.5933 24.9997 13.9767C25.0008 15.36 24.5113 16.5367 23.5313 17.5067C22.5513 18.4767 21.3741 18.965 19.9997 18.975ZM8.33301 31.0267V28.2833C8.33301 27.5956 8.53301 26.9522 8.93301 26.3533C9.33412 25.7533 9.87301 25.2878 10.5497 24.9567C12.123 24.2022 13.6975 23.6367 15.273 23.26C16.8475 22.8822 18.423 22.6933 19.9997 22.6933C21.5763 22.6933 23.1525 22.8822 24.728 23.26C26.3036 23.6378 27.8769 24.2033 29.448 24.9567C30.1258 25.2878 30.6647 25.7533 31.0647 26.3533C31.4658 26.9522 31.6663 27.5956 31.6663 28.2833V31.0267H8.33301ZM9.99967 29.36H29.9997V28.2833C29.9997 27.9144 29.8802 27.5672 29.6413 27.2417C29.4036 26.9172 29.0741 26.6428 28.653 26.4183C27.2819 25.7539 25.8675 25.245 24.4097 24.8917C22.9519 24.5383 21.4819 24.3611 19.9997 24.36C18.5175 24.3589 17.0475 24.5356 15.5897 24.89C14.1319 25.2444 12.7175 25.7533 11.3463 26.4167C10.9241 26.6411 10.5947 26.9156 10.358 27.24C10.1191 27.5656 9.99967 27.9133 9.99967 28.2833V29.36ZM19.9997 17.31C20.9163 17.31 21.7013 16.9833 22.3547 16.33C23.008 15.6767 23.3341 14.8911 23.333 13.9733C23.3319 13.0556 23.0058 12.2711 22.3547 11.62C21.7036 10.9689 20.9186 10.6422 19.9997 10.64C19.0808 10.6378 18.2963 10.9644 17.6463 11.62C16.9963 12.2756 16.6697 13.06 16.6663 13.9733C16.663 14.8867 16.9897 15.6717 17.6463 16.3283C18.303 16.985 19.0875 17.3111 19.9997 17.3067" fill="#505050"/>
</svg>
